<svg version="1.1" xmlns="http://www.w3.org/2000/svg" width="1024" height="1536">
<path d="M0 0 C10.61596849 0.66349803 20.47388139 1.47003985 30.8125 3.5 C31.47131165 3.6287149 32.13012329 3.75742981 32.80889893 3.89004517 C91.34601949 15.48002046 149.92676697 49.81782583 186 98 C186.47324707 98.62390625 186.94649414 99.2478125 187.43408203 99.890625 C215.97034925 137.66678465 236.31458424 182.52488372 241 230 C241.0832251 230.78536133 241.1664502 231.57072266 241.25219727 232.37988281 C242.16509714 241.8687827 242.2850933 251.34971312 242.3125 260.875 C242.31511841 261.75006195 242.31773682 262.6251239 242.32043457 263.52670288 C242.32567408 279.99017089 240.85426829 295.76586738 238 312 C237.85578613 312.88800293 237.71157227 313.77600586 237.56298828 314.69091797 C231.66188241 350.74846305 214.51063944 385.76238921 193 415 C192.56365234 415.59329102 192.12730469 416.18658203 191.67773438 416.79785156 C184.46397362 426.49635213 176.3997008 435.32189765 168 444 C167.27369385 444.75120117 167.27369385 444.75120117 166.53271484 445.51757812 C133.10169176 479.91744302 89.52538355 503.23813413 43 514 C42.14019531 514.20109375 41.28039062 514.4021875 40.39453125 514.609375 C7.90065423 522.06533438 -28.18343478 522.96985322 -61 517 C-61.93730957 516.83371094 -62.87461914 516.66742187 -63.84033203 516.49609375 C-86.32935913 512.38155042 -108.46641351 505.09728032 -129 495 C-130.28431553 494.42441361 -130.28431553 494.42441361 -131.59457684 493.83719921 C-134 492 -134 492 -134.61523914 489.13207722 C-134.61063018 487.95494758 -134.60602121 486.77781794 -134.60127258 485.5650177 C-134.60554471 484.90908605 -134.60981683 484.2531544 -134.61421841 483.57734603 C-134.62246821 481.37484836 -134.59493531 479.17424655 -134.56762695 476.97192383 C-134.56621689 475.39514715 -134.56700765 473.81836718 -134.56983948 472.24159241 C-134.57127669 467.95649636 -134.54183812 463.67209718 -134.50696969 459.3871634 C-134.4757567 454.91086989 -134.47277946 450.4345612 -134.46684265 445.95817566 C-134.45128928 437.47953856 -134.41024073 429.00122303 -134.3600952 420.52272767 C-134.30424809 410.87113384 -134.27672692 401.21952482 -134.25161803 391.5678097 C-134.19932609 371.71169351 -134.1113549 351.855867 -134 332 C-130.81970124 335.14663269 -127.87421156 338.28187353 -125.125 341.8125 C-105.43852358 366.59473103 -77.31468984 384.28922927 -46 390 C-44.36804688 390.30744141 -44.36804688 390.30744141 -42.703125 390.62109375 C-7.08507715 396.35955701 30.06379453 388.37686477 59.60546875 367.51953125 C62.84177897 365.13592996 65.93327576 362.59858264 69 360 C69.76884521 359.34862061 69.76884521 359.34862061 70.55322266 358.68408203 C90.48838183 341.60660764 103.13597497 320.11505512 110.875 295.1875 C111.1735791 294.23294922 111.4721582 293.27839844 111.77978516 292.29492188 C115.07464749 281.22111052 115.23688776 270.27464361 115.29516602 258.79858398 C115.30663068 257.23696797 115.32699428 255.67538942 115.35668945 254.11401367 C115.64014026 239.12279124 113.14326893 225.50691652 107.8125 211.4375 C107.37031128 210.26054565 107.37031128 210.26054565 106.91918945 209.05981445 C103.73888291 200.89776898 99.66938345 193.39692727 95 186 C94.63600098 185.41444336 94.27200195 184.82888672 93.89697266 184.22558594 C73.51976302 152.00327226 41.21826516 134.55464236 5 126 C3.35 125.67 1.7 125.34 0 125 C0 83.75 0 42.5 0 0 Z " fill="#FFFFFF" transform="translate(540,515)" data-index="1" style="visibility: visible;"></path>
<path d="M0 0 C0 40.92 0 81.84 0 124 C-7.92 124.495 -7.92 124.495 -16 125 C-52.0981391 130.2826545 -84.86379868 148.37370074 -107.18945312 177.5546875 C-117.85783962 191.95954534 -125.96780763 208.52863309 -130 226 C-130.26245262 227.00538598 -130.52490524 228.01077196 -130.79531097 229.04662418 C-133.9629702 242.90215236 -133.42526633 257.03984858 -133.38876271 271.16886079 C-133.38190105 275.1232866 -133.39253204 279.07767201 -133.40104675 283.03208923 C-133.41355511 289.87005844 -133.41560602 296.70796441 -133.41069031 303.54594231 C-133.40384934 313.45074296 -133.41645773 323.35544925 -133.43419749 333.26023299 C-133.46278537 349.35862449 -133.48034325 365.45700575 -133.48876953 381.55541992 C-133.48927671 382.51685304 -133.48978389 383.47828615 -133.49030644 384.4688536 C-133.493833 391.2917356 -133.49696256 398.11461776 -133.5 404.9375 C-133.50346921 412.72973648 -133.50711858 420.52197282 -133.51123047 428.31420898 C-133.51198439 429.75412668 -133.51198439 429.75412668 -133.51275355 431.22313362 C-133.52151603 447.26426785 -133.54198764 463.30536697 -133.57071257 479.34647757 C-133.58782823 489.21907722 -133.5945064 499.09157714 -133.58740652 508.96418966 C-133.58320809 515.73416541 -133.58963815 522.5040785 -133.60420525 529.27403968 C-133.6122133 533.17089702 -133.61545943 537.06759862 -133.60538292 540.96445465 C-133.56047955 559.75379835 -133.91391632 577.5367865 -140.125 595.5 C-140.57286865 596.81182251 -140.57286865 596.81182251 -141.02978516 598.15014648 C-152.54550276 630.59737432 -176.90228224 655.34271247 -207.69140625 670.078125 C-221.5538477 676.43663557 -236.92593843 681.10204923 -252.25244141 681.02783203 C-253.32974518 681.02381378 -254.40704895 681.01979553 -255.51699829 681.01565552 C-256.33638885 681.0104892 -257.15577942 681.00532288 -258 681 C-258.02289989 625.34634398 -258.04051528 569.69268842 -258.05106533 514.03902861 C-258.052316 507.46530943 -258.05361033 500.89159026 -258.05493164 494.31787109 C-258.05519395 493.00918818 -258.05545626 491.70050526 -258.05572652 490.35216528 C-258.0600752 469.17539895 -258.06795836 447.99863534 -258.0771528 426.82187063 C-258.08651161 405.084875 -258.09206033 383.34788079 -258.09408849 361.61088324 C-258.09545909 348.20317378 -258.09978461 334.79547202 -258.10791647 321.38776493 C-258.1132114 312.18767033 -258.11479804 302.9875797 -258.11350138 293.78748369 C-258.1128623 288.48334834 -258.11382678 283.17922641 -258.11920547 277.87509346 C-258.12410259 273.01010406 -258.12429756 268.145137 -258.12089889 263.28014654 C-258.12047937 261.52886359 -258.12172157 259.7775792 -258.12488318 258.02629906 C-258.14985105 243.33030813 -257.78991798 228.76489161 -255.25 214.25 C-255.0751709 213.23341309 -254.9003418 212.21682617 -254.72021484 211.16943359 C-248.10069635 173.91066885 -233.84472066 137.38078702 -211 107 C-210.53706543 106.38302246 -210.07413086 105.76604492 -209.59716797 105.13037109 C-203.75901825 97.41272033 -197.57297651 90.10502182 -191 83 C-190.09106898 81.98951991 -189.18358395 80.97773778 -188.27734375 79.96484375 C-183.14768482 74.25321523 -177.92573688 68.8961264 -172 64 C-171.18917969 63.28972656 -170.37835938 62.57945312 -169.54296875 61.84765625 C-134.35392826 31.48172901 -91.41129301 11.936799 -46 3 C-45.27586914 2.84901855 -44.55173828 2.69803711 -43.80566406 2.54248047 C-28.8916182 -0.52028438 -15.65838098 0 0 0 Z " fill="#1B96E1" transform="translate(518,515)" data-index="2" style="visibility: visible; opacity: 1;"></path>
<path d="M0 0 C0 42.24 0 84.48 0 128 C-5.28 128.33 -10.56 128.66 -16 129 C-19.66971507 129.58887301 -23.15539046 130.20594898 -26.75 131.0625 C-27.67192139 131.27946533 -28.59384277 131.49643066 -29.54370117 131.7199707 C-50.56619395 136.93923678 -69.79580191 146.58490896 -86 161 C-86.83789062 161.70640625 -87.67578125 162.4128125 -88.5390625 163.140625 C-101.53079144 174.32236074 -110.50226719 187.920509 -118.25 203.0625 C-118.77376221 204.07944946 -118.77376221 204.07944946 -119.30810547 205.11694336 C-121.33019278 209.19110031 -122.41135033 212.81640596 -123.25 217.3125 C-124.89171615 222.81224909 -128.03604794 224.64490253 -132.80883789 227.33666992 C-136.37754675 229.21086529 -139.97972288 231.00918447 -143.59912109 232.78320312 C-148.71771769 235.37737492 -153.33646915 238.66801348 -158 242 C-158.86286621 242.61029053 -158.86286621 242.61029053 -159.74316406 243.23291016 C-168.88718789 249.71733483 -177.59073682 256.58975197 -186 264 C-186.75144287 264.65669678 -186.75144287 264.65669678 -187.51806641 265.32666016 C-217.92982292 292.01977587 -241.05855537 326.96336174 -257 364 C-257.33 364 -257.66 364 -258 364 C-258.09428695 348.6899357 -258.16438553 333.37989369 -258.20724869 318.06960583 C-258.22769771 310.95751816 -258.25547055 303.84561293 -258.30175781 296.73364258 C-258.34217703 290.52021921 -258.36756024 284.30692816 -258.37635398 278.09337693 C-258.38147792 274.81653778 -258.39537687 271.54015558 -258.42292023 268.2634182 C-258.88924722 210.39129201 -241.39176416 156.16396674 -208 109 C-207.5477002 108.36094727 -207.09540039 107.72189453 -206.62939453 107.06347656 C-199.87582284 97.64908729 -192.04624555 89.30528365 -184 81 C-183.31953613 80.29230469 -182.63907227 79.58460938 -181.93798828 78.85546875 C-172.8385435 69.42304083 -163.6123198 60.69935493 -153 53 C-152.33500488 52.51192871 -151.67000977 52.02385742 -150.98486328 51.52099609 C-136.39387206 40.847549 -121.33969205 31.73060699 -105 24 C-104.30036133 23.66613281 -103.60072266 23.33226562 -102.87988281 22.98828125 C-85.61120014 14.81208864 -67.71065612 8.84764586 -49 5 C-48.34225586 4.86110352 -47.68451172 4.72220703 -47.00683594 4.57910156 C-39.36159915 2.97928589 -31.69384954 1.73541798 -23.9375 0.8125 C-23.26662354 0.7285498 -22.59574707 0.64459961 -21.90454102 0.55810547 C-14.52632182 -0.24977333 -7.55936099 0 0 0 Z " fill="#1A96E1" transform="translate(518,301)" data-index="3" style="visibility: visible;"></path>
</svg>
